<svg width="18" height="20" viewBox="0 0 18 20" fill="none" xmlns="http://www.w3.org/2000/svg">
<path d="M10.4696 16.25H11.4071C11.5314 16.25 11.6507 16.2006 11.7386 16.1127C11.8265 16.0248 11.8759 15.9056 11.8759 15.7812V7.34375C11.8759 7.21943 11.8265 7.1002 11.7386 7.01229C11.6507 6.92439 11.5314 6.875 11.4071 6.875H10.4696C10.3453 6.875 10.2261 6.92439 10.1381 7.01229C10.0502 7.1002 10.0009 7.21943 10.0009 7.34375V15.7812C10.0009 15.9056 10.0502 16.0248 10.1381 16.1127C10.2261 16.2006 10.3453 16.25 10.4696 16.25ZM16.8759 3.125H13.6567L12.3286 0.910156C12.1619 0.632428 11.9261 0.402614 11.6442 0.243108C11.3623 0.0836025 11.0439 -0.000154039 10.72 2.12674e-07H6.78171C6.45794 -1.90925e-05 6.13968 0.0838016 5.85792 0.243301C5.57616 0.4028 5.34051 0.632542 5.1739 0.910156L3.84499 3.125H0.625854C0.460094 3.125 0.301123 3.19085 0.183913 3.30806C0.0667025 3.42527 0.000854492 3.58424 0.000854492 3.75L0.000854492 4.375C0.000854492 4.54076 0.0667025 4.69973 0.183913 4.81694C0.301123 4.93415 0.460094 5 0.625854 5H1.25085V18.125C1.25085 18.6223 1.4484 19.0992 1.80003 19.4508C2.15166 19.8025 2.62857 20 3.12585 20H14.3759C14.8731 20 15.35 19.8025 15.7017 19.4508C16.0533 19.0992 16.2509 18.6223 16.2509 18.125V5H16.8759C17.0416 5 17.2006 4.93415 17.3178 4.81694C17.435 4.69973 17.5009 4.54076 17.5009 4.375V3.75C17.5009 3.58424 17.435 3.42527 17.3178 3.30806C17.2006 3.19085 17.0416 3.125 16.8759 3.125ZM6.71335 1.98867C6.73424 1.9539 6.7638 1.92515 6.79913 1.90523C6.83446 1.8853 6.87435 1.87489 6.91492 1.875H10.5868C10.6273 1.87495 10.6671 1.8854 10.7024 1.90532C10.7376 1.92524 10.7671 1.95396 10.788 1.98867L11.47 3.125H6.03171L6.71335 1.98867ZM14.3759 18.125H3.12585V5H14.3759V18.125ZM6.0946 16.25H7.0321C7.15642 16.25 7.27565 16.2006 7.36356 16.1127C7.45147 16.0248 7.50085 15.9056 7.50085 15.7812V7.34375C7.50085 7.21943 7.45147 7.1002 7.36356 7.01229C7.27565 6.92439 7.15642 6.875 7.0321 6.875H6.0946C5.97028 6.875 5.85106 6.92439 5.76315 7.01229C5.67524 7.1002 5.62585 7.21943 5.62585 7.34375V15.7812C5.62585 15.9056 5.67524 16.0248 5.76315 16.1127C5.85106 16.2006 5.97028 16.25 6.0946 16.25Z" fill="#006241"/>
</svg>
